# xmcd
#
# Track frame offsets: 
#        150
#        39865
#        70535
#        101720
#        134496
#        169019
#        201016
#        225429
#        256131
#        290227
#        324269
#
# Disc length: 4725 seconds
#
# Revision: 0
# Processed by: cddbd v1.5.2PL0 Copyright (c) Steve Scherf et al.
# Submitted via: ExactAudioCopy v1.0b3
#
DISCID=9212730b
DTITLE=Various Artist - D.Trance Vol. 61 - CD 2
DYEAR=1900
DGENRE=
TTITLE0=Criostasis and DJ Pawel C - Hollow Face (Original Mix)
TTITLE1=Luca Antolini - The Race 2012 (Bluntseixal Remix)
TTITLE2=Ali Wilson - Rays Of Shamash (Original Mix)
TTITLE3=Nomad Vs. Wragg - Roar
TTITLE4=Victor Dinaire and Bissen - Symmetry C (Original Mix)
TTITLE5=Emilio - Tension (Nish Dubstek Remix)
TTITLE6=Thomas Ulstrup - Bomba (Original Mix)
TTITLE7=DJ Space Raven - Samantha (Original Mix)
TTITLE8=Veselin Tasev - Sant Rafel De Sa Creu (Original Eivissa Mix)
TTITLE9=Tonny Nesse - 7th Wonder (Original Mix)
TTITLE10=DJ Myde - Breaking Out (Original Dollart Mix)
EXTD=
EXTT0=
EXTT1=
EXTT2=
EXTT3=
EXTT4=
EXTT5=
EXTT6=
EXTT7=
EXTT8=
EXTT9=
EXTT10=
PLAYORDER=
